# Blender v2.81 (sub 16) OBJ File: ''
# www.blender.org
mtllib box.mtl
o Cube
v 1.000000 1.000000 -1.000000
v 1.000000 -1.000000 -1.000000
v 1.000000 1.000000 1.000000
v 1.000000 -1.000000 1.000000
v -1.000000 1.000000 -1.000000
v -1.000000 -1.000000 -1.000000
v -1.000000 1.000000 1.000000
v -1.000000 -1.000000 1.000000
vt 0.500000 0.749957
vt 0.250043 0.500000
vt 0.500000 0.500000
vt 0.000087 0.749957
vt 0.000087 0.500000
vt 0.250043 0.749957
vt 0.500000 0.999913
vt 0.250043 0.999913
vt 0.500000 0.250043
vt 0.250043 0.000087
vt 0.500000 0.000087
vt 0.250043 0.250043
vt 0.749957 0.500000
vt 0.749957 0.749957
vn 0.0000 1.0000 0.0000
vn 0.0000 0.0000 1.0000
vn -1.0000 0.0000 0.0000
vn 0.0000 -1.0000 0.0000
vn 1.0000 0.0000 0.0000
vn 0.0000 0.0000 -1.0000
usemtl Material
s off
f 5/1/1 3/2/1 1/3/1
f 3/2/2 8/4/2 4/5/2
f 7/6/3 6/7/3 8/8/3
f 2/9/4 8/10/4 6/11/4
f 1/3/5 4/12/5 2/9/5
f 5/1/6 2/13/6 6/14/6
f 5/1/1 7/6/1 3/2/1
f 3/2/2 7/6/2 8/4/2
f 7/6/3 5/1/3 6/7/3
f 2/9/4 4/12/4 8/10/4
f 1/3/5 3/2/5 4/12/5
f 5/1/6 1/3/6 2/13/6
